<mxfile host="Electron" modified="2023-11-07T16:39:44.865Z" agent="Mozilla/5.0 (Macintosh; Intel Mac OS X 10_15_7) AppleWebKit/537.36 (KHTML, like Gecko) draw.io/22.0.3 Chrome/114.0.5735.289 Electron/25.8.4 Safari/537.36" etag="fdqRYEAUxZgh2CXx3r9P" version="22.0.3" type="device">
  <diagram name="Страница — 1" id="rXzVCqMe4OSsWpLtMOlA">
    <mxGraphModel dx="1727" dy="1288" grid="1" gridSize="10" guides="1" tooltips="1" connect="1" arrows="1" fold="1" page="1" pageScale="1" pageWidth="4681" pageHeight="3300" background="#00331A" math="0" shadow="0">
      <root>
        <mxCell id="0" />
        <mxCell id="1" parent="0" />
        <mxCell id="nDJdGogcVKiFzzGw0XgF-22" value="&lt;p style=&quot;line-height: 270%;&quot;&gt;&lt;font size=&quot;1&quot; color=&quot;#ffffff&quot; style=&quot;&quot;&gt;&lt;b style=&quot;font-size: 60px;&quot;&gt;DataModels&lt;/b&gt;&lt;/font&gt;&lt;/p&gt;" style="whiteSpace=wrap;html=1;shape=mxgraph.basic.cloud_rect;sketch=1;hachureGap=4;jiggle=2;curveFitting=1;fontFamily=Architects Daughter;fontSource=https%3A%2F%2Ffonts.googleapis.com%2Fcss%3Ffamily%3DArchitects%2BDaughter;fontSize=20;fillColor=#e3c800;fontColor=#000000;strokeColor=#B09500;opacity=50;verticalAlign=top;strokeWidth=2;perimeterSpacing=5;" parent="1" vertex="1">
          <mxGeometry x="120" y="730" width="1420" height="1200" as="geometry" />
        </mxCell>
        <mxCell id="96jZ5b7mw_5-THhRn5Ns-4" value="CreativeGroup" style="swimlane;fontStyle=1;align=center;verticalAlign=top;childLayout=stackLayout;horizontal=1;startSize=26;horizontalStack=0;resizeParent=1;resizeParentMax=0;resizeLast=0;collapsible=1;marginBottom=0;whiteSpace=wrap;html=1;sketch=1;hachureGap=4;jiggle=2;curveFitting=1;fontFamily=Architects Daughter;fontSource=https%3A%2F%2Ffonts.googleapis.com%2Fcss%3Ffamily%3DArchitects%2BDaughter;fontSize=20;" parent="1" vertex="1">
          <mxGeometry x="1000" y="840" width="320" height="480" as="geometry" />
        </mxCell>
        <mxCell id="96jZ5b7mw_5-THhRn5Ns-5" value="var director: User&lt;br&gt;var cameraMans: [User]&lt;br&gt;var graphicsOperator: User&lt;br&gt;var soundDirector: User&lt;br&gt;var replayDirector: User?&lt;br&gt;var replayOperators: [User]&lt;br&gt;var producer: User&lt;br&gt;var floorManager: User&lt;br&gt;&amp;nbsp;" style="text;strokeColor=none;fillColor=none;align=left;verticalAlign=top;spacingLeft=4;spacingRight=4;overflow=hidden;rotatable=0;points=[[0,0.5],[1,0.5]];portConstraint=eastwest;whiteSpace=wrap;html=1;fontSize=20;fontFamily=Architects Daughter;" parent="96jZ5b7mw_5-THhRn5Ns-4" vertex="1">
          <mxGeometry y="26" width="320" height="384" as="geometry" />
        </mxCell>
        <mxCell id="96jZ5b7mw_5-THhRn5Ns-6" value="" style="line;strokeWidth=1;fillColor=none;align=left;verticalAlign=middle;spacingTop=-1;spacingLeft=3;spacingRight=3;rotatable=0;labelPosition=right;points=[];portConstraint=eastwest;strokeColor=inherit;sketch=1;hachureGap=4;jiggle=2;curveFitting=1;fontFamily=Architects Daughter;fontSource=https%3A%2F%2Ffonts.googleapis.com%2Fcss%3Ffamily%3DArchitects%2BDaughter;fontSize=20;" parent="96jZ5b7mw_5-THhRn5Ns-4" vertex="1">
          <mxGeometry y="410" width="320" height="8" as="geometry" />
        </mxCell>
        <mxCell id="96jZ5b7mw_5-THhRn5Ns-7" value="+ method(type): type" style="text;strokeColor=none;fillColor=none;align=left;verticalAlign=top;spacingLeft=4;spacingRight=4;overflow=hidden;rotatable=0;points=[[0,0.5],[1,0.5]];portConstraint=eastwest;whiteSpace=wrap;html=1;fontSize=20;fontFamily=Architects Daughter;" parent="96jZ5b7mw_5-THhRn5Ns-4" vertex="1">
          <mxGeometry y="418" width="320" height="62" as="geometry" />
        </mxCell>
        <mxCell id="96jZ5b7mw_5-THhRn5Ns-8" value="Event&lt;br&gt;" style="swimlane;fontStyle=1;align=center;verticalAlign=top;childLayout=stackLayout;horizontal=1;startSize=26;horizontalStack=0;resizeParent=1;resizeParentMax=0;resizeLast=0;collapsible=1;marginBottom=0;whiteSpace=wrap;html=1;sketch=1;hachureGap=4;jiggle=2;curveFitting=1;fontFamily=Architects Daughter;fontSource=https%3A%2F%2Ffonts.googleapis.com%2Fcss%3Ffamily%3DArchitects%2BDaughter;fontSize=20;rounded=0;shadow=0;" parent="1" vertex="1">
          <mxGeometry x="220" y="840" width="350" height="300" as="geometry" />
        </mxCell>
        <mxCell id="96jZ5b7mw_5-THhRn5Ns-9" value="var id: UUID&lt;br&gt;var date: Date&lt;br&gt;var creativeGroup: CreativeGroup&lt;br&gt;var broadcaster: Broadcaster&lt;br&gt;var location: Stadium&lt;br&gt;" style="text;strokeColor=none;fillColor=none;align=left;verticalAlign=top;spacingLeft=4;spacingRight=4;overflow=hidden;rotatable=0;points=[[0,0.5],[1,0.5]];portConstraint=eastwest;whiteSpace=wrap;html=1;fontSize=20;fontFamily=Architects Daughter;" parent="96jZ5b7mw_5-THhRn5Ns-8" vertex="1">
          <mxGeometry y="26" width="350" height="174" as="geometry" />
        </mxCell>
        <mxCell id="96jZ5b7mw_5-THhRn5Ns-10" value="" style="line;strokeWidth=1;fillColor=none;align=left;verticalAlign=middle;spacingTop=-1;spacingLeft=3;spacingRight=3;rotatable=0;labelPosition=right;points=[];portConstraint=eastwest;strokeColor=inherit;sketch=1;hachureGap=4;jiggle=2;curveFitting=1;fontFamily=Architects Daughter;fontSource=https%3A%2F%2Ffonts.googleapis.com%2Fcss%3Ffamily%3DArchitects%2BDaughter;fontSize=20;" parent="96jZ5b7mw_5-THhRn5Ns-8" vertex="1">
          <mxGeometry y="200" width="350" height="8" as="geometry" />
        </mxCell>
        <mxCell id="96jZ5b7mw_5-THhRn5Ns-11" value="+ method(type): type" style="text;strokeColor=none;fillColor=none;align=left;verticalAlign=top;spacingLeft=4;spacingRight=4;overflow=hidden;rotatable=0;points=[[0,0.5],[1,0.5]];portConstraint=eastwest;whiteSpace=wrap;html=1;fontSize=20;fontFamily=Architects Daughter;" parent="96jZ5b7mw_5-THhRn5Ns-8" vertex="1">
          <mxGeometry y="208" width="350" height="92" as="geometry" />
        </mxCell>
        <mxCell id="96jZ5b7mw_5-THhRn5Ns-12" value="User" style="swimlane;fontStyle=1;align=center;verticalAlign=top;childLayout=stackLayout;horizontal=1;startSize=26;horizontalStack=0;resizeParent=1;resizeParentMax=0;resizeLast=0;collapsible=1;marginBottom=0;whiteSpace=wrap;html=1;sketch=1;hachureGap=4;jiggle=2;curveFitting=1;fontFamily=Architects Daughter;fontSource=https%3A%2F%2Ffonts.googleapis.com%2Fcss%3Ffamily%3DArchitects%2BDaughter;fontSize=20;" parent="1" vertex="1">
          <mxGeometry x="600" y="840" width="360" height="790" as="geometry" />
        </mxCell>
        <mxCell id="96jZ5b7mw_5-THhRn5Ns-13" value="var name: String&lt;br&gt;&lt;br&gt;var phoneNumber: Int&lt;br&gt;var email: String&lt;br&gt;var homeAddress: String&lt;br&gt;&lt;br&gt;var nativePosition: String&lt;br&gt;&lt;br&gt;var reserved: Bool&lt;br&gt;var events: [Event: eventPosition]" style="text;strokeColor=none;fillColor=none;align=left;verticalAlign=top;spacingLeft=4;spacingRight=4;overflow=hidden;rotatable=0;points=[[0,0.5],[1,0.5]];portConstraint=eastwest;whiteSpace=wrap;html=1;fontSize=20;fontFamily=Architects Daughter;" parent="96jZ5b7mw_5-THhRn5Ns-12" vertex="1">
          <mxGeometry y="26" width="360" height="674" as="geometry" />
        </mxCell>
        <mxCell id="96jZ5b7mw_5-THhRn5Ns-14" value="" style="line;strokeWidth=1;fillColor=none;align=left;verticalAlign=middle;spacingTop=-1;spacingLeft=3;spacingRight=3;rotatable=0;labelPosition=right;points=[];portConstraint=eastwest;strokeColor=inherit;sketch=1;hachureGap=4;jiggle=2;curveFitting=1;fontFamily=Architects Daughter;fontSource=https%3A%2F%2Ffonts.googleapis.com%2Fcss%3Ffamily%3DArchitects%2BDaughter;fontSize=20;" parent="96jZ5b7mw_5-THhRn5Ns-12" vertex="1">
          <mxGeometry y="700" width="360" height="8" as="geometry" />
        </mxCell>
        <mxCell id="96jZ5b7mw_5-THhRn5Ns-15" value="+ method(type): type" style="text;strokeColor=none;fillColor=none;align=left;verticalAlign=top;spacingLeft=4;spacingRight=4;overflow=hidden;rotatable=0;points=[[0,0.5],[1,0.5]];portConstraint=eastwest;whiteSpace=wrap;html=1;fontSize=20;fontFamily=Architects Daughter;" parent="96jZ5b7mw_5-THhRn5Ns-12" vertex="1">
          <mxGeometry y="708" width="360" height="82" as="geometry" />
        </mxCell>
        <mxCell id="96jZ5b7mw_5-THhRn5Ns-16" value="Camera" style="swimlane;fontStyle=1;align=center;verticalAlign=top;childLayout=stackLayout;horizontal=1;startSize=26;horizontalStack=0;resizeParent=1;resizeParentMax=0;resizeLast=0;collapsible=1;marginBottom=0;whiteSpace=wrap;html=1;sketch=1;hachureGap=4;jiggle=2;curveFitting=1;fontFamily=Architects Daughter;fontSource=https%3A%2F%2Ffonts.googleapis.com%2Fcss%3Ffamily%3DArchitects%2BDaughter;fontSize=20;" parent="1" vertex="1">
          <mxGeometry x="220" y="1160" width="350" height="470" as="geometry" />
        </mxCell>
        <mxCell id="96jZ5b7mw_5-THhRn5Ns-17" value="var id: UUID&lt;br&gt;var cameraMan: User&lt;br&gt;&lt;br&gt;var selected: Bool&lt;br&gt;var position: CameraPosition&lt;br&gt;var signal: Signal&lt;br&gt;&lt;br&gt;var direction: Direction { comp prop}" style="text;strokeColor=none;fillColor=none;align=left;verticalAlign=top;spacingLeft=4;spacingRight=4;overflow=hidden;rotatable=0;points=[[0,0.5],[1,0.5]];portConstraint=eastwest;whiteSpace=wrap;html=1;fontSize=20;fontFamily=Architects Daughter;" parent="96jZ5b7mw_5-THhRn5Ns-16" vertex="1">
          <mxGeometry y="26" width="350" height="254" as="geometry" />
        </mxCell>
        <mxCell id="96jZ5b7mw_5-THhRn5Ns-18" value="" style="line;strokeWidth=1;fillColor=none;align=left;verticalAlign=middle;spacingTop=-1;spacingLeft=3;spacingRight=3;rotatable=0;labelPosition=right;points=[];portConstraint=eastwest;strokeColor=inherit;sketch=1;hachureGap=4;jiggle=2;curveFitting=1;fontFamily=Architects Daughter;fontSource=https%3A%2F%2Ffonts.googleapis.com%2Fcss%3Ffamily%3DArchitects%2BDaughter;fontSize=20;" parent="96jZ5b7mw_5-THhRn5Ns-16" vertex="1">
          <mxGeometry y="280" width="350" height="8" as="geometry" />
        </mxCell>
        <mxCell id="96jZ5b7mw_5-THhRn5Ns-19" value="func ==(lhs,rhs):-&amp;gt; Bool&lt;br&gt;&amp;nbsp;//Identifiable conformation&lt;br&gt;func hash(into hasher: inout Hasher)&lt;br&gt;//Hashable conformation" style="text;strokeColor=none;fillColor=none;align=left;verticalAlign=top;spacingLeft=4;spacingRight=4;overflow=hidden;rotatable=0;points=[[0,0.5],[1,0.5]];portConstraint=eastwest;whiteSpace=wrap;html=1;fontSize=20;fontFamily=Architects Daughter;" parent="96jZ5b7mw_5-THhRn5Ns-16" vertex="1">
          <mxGeometry y="288" width="350" height="182" as="geometry" />
        </mxCell>
        <mxCell id="nDJdGogcVKiFzzGw0XgF-2" value="&lt;ul style=&quot;font-size: 10px; line-height: 100%;&quot;&gt;&lt;li&gt;&lt;font style=&quot;font-size: 10px;&quot;&gt;&lt;b&gt;Events&lt;/b&gt;&lt;/font&gt;&lt;/li&gt;&lt;li&gt;&lt;font style=&quot;font-size: 10px;&quot;&gt;&lt;span style=&quot;background-color: initial;&quot;&gt;&lt;b&gt;Users&lt;/b&gt;&lt;/span&gt;&lt;/font&gt;&lt;/li&gt;&lt;/ul&gt;" style="shape=cylinder3;whiteSpace=wrap;html=1;boundedLbl=1;backgroundOutline=1;size=15;sketch=1;hachureGap=4;jiggle=2;curveFitting=1;fontFamily=Architects Daughter;fontSource=https%3A%2F%2Ffonts.googleapis.com%2Fcss%3Ffamily%3DArchitects%2BDaughter;fontSize=20;align=left;" parent="1" vertex="1">
          <mxGeometry x="70" y="342" width="130" height="160" as="geometry" />
        </mxCell>
        <mxCell id="nDJdGogcVKiFzzGw0XgF-3" value="" style="ellipse;shape=cloud;whiteSpace=wrap;html=1;sketch=1;hachureGap=4;jiggle=2;curveFitting=1;fontFamily=Architects Daughter;fontSource=https%3A%2F%2Ffonts.googleapis.com%2Fcss%3Ffamily%3DArchitects%2BDaughter;fontSize=20;" parent="1" vertex="1">
          <mxGeometry x="50" y="190" width="190" height="110" as="geometry" />
        </mxCell>
        <mxCell id="nDJdGogcVKiFzzGw0XgF-4" value="DataManager" style="swimlane;fontStyle=1;align=center;verticalAlign=top;childLayout=stackLayout;horizontal=1;startSize=26;horizontalStack=0;resizeParent=1;resizeParentMax=0;resizeLast=0;collapsible=1;marginBottom=0;whiteSpace=wrap;html=1;sketch=1;hachureGap=4;jiggle=2;curveFitting=1;fontFamily=Architects Daughter;fontSource=https%3A%2F%2Ffonts.googleapis.com%2Fcss%3Ffamily%3DArchitects%2BDaughter;fontSize=20;" parent="1" vertex="1">
          <mxGeometry x="360" y="324" width="250" height="204" as="geometry" />
        </mxCell>
        <mxCell id="nDJdGogcVKiFzzGw0XgF-5" value="+ field: type" style="text;strokeColor=none;fillColor=none;align=left;verticalAlign=top;spacingLeft=4;spacingRight=4;overflow=hidden;rotatable=0;points=[[0,0.5],[1,0.5]];portConstraint=eastwest;whiteSpace=wrap;html=1;fontSize=20;fontFamily=Architects Daughter;" parent="nDJdGogcVKiFzzGw0XgF-4" vertex="1">
          <mxGeometry y="26" width="250" height="144" as="geometry" />
        </mxCell>
        <mxCell id="nDJdGogcVKiFzzGw0XgF-6" value="" style="line;strokeWidth=1;fillColor=none;align=left;verticalAlign=middle;spacingTop=-1;spacingLeft=3;spacingRight=3;rotatable=0;labelPosition=right;points=[];portConstraint=eastwest;strokeColor=inherit;sketch=1;hachureGap=4;jiggle=2;curveFitting=1;fontFamily=Architects Daughter;fontSource=https%3A%2F%2Ffonts.googleapis.com%2Fcss%3Ffamily%3DArchitects%2BDaughter;fontSize=20;" parent="nDJdGogcVKiFzzGw0XgF-4" vertex="1">
          <mxGeometry y="170" width="250" height="8" as="geometry" />
        </mxCell>
        <mxCell id="nDJdGogcVKiFzzGw0XgF-7" value="+ method(type): type" style="text;strokeColor=none;fillColor=none;align=left;verticalAlign=top;spacingLeft=4;spacingRight=4;overflow=hidden;rotatable=0;points=[[0,0.5],[1,0.5]];portConstraint=eastwest;whiteSpace=wrap;html=1;fontSize=20;fontFamily=Architects Daughter;" parent="nDJdGogcVKiFzzGw0XgF-4" vertex="1">
          <mxGeometry y="178" width="250" height="26" as="geometry" />
        </mxCell>
        <mxCell id="nDJdGogcVKiFzzGw0XgF-8" style="edgeStyle=orthogonalEdgeStyle;rounded=0;sketch=1;hachureGap=4;jiggle=2;curveFitting=1;orthogonalLoop=1;jettySize=auto;html=1;exitX=0.25;exitY=0;exitDx=0;exitDy=0;entryX=0.905;entryY=0.51;entryDx=0;entryDy=0;entryPerimeter=0;fontFamily=Architects Daughter;fontSource=https%3A%2F%2Ffonts.googleapis.com%2Fcss%3Ffamily%3DArchitects%2BDaughter;fontSize=16;startArrow=classic;startFill=1;strokeWidth=2;" parent="1" source="nDJdGogcVKiFzzGw0XgF-4" target="nDJdGogcVKiFzzGw0XgF-3" edge="1">
          <mxGeometry relative="1" as="geometry">
            <Array as="points">
              <mxPoint x="423" y="246" />
            </Array>
          </mxGeometry>
        </mxCell>
        <mxCell id="nDJdGogcVKiFzzGw0XgF-9" style="edgeStyle=orthogonalEdgeStyle;rounded=0;sketch=1;hachureGap=4;jiggle=2;curveFitting=1;orthogonalLoop=1;jettySize=auto;html=1;exitX=0;exitY=0.5;exitDx=0;exitDy=0;fontFamily=Architects Daughter;fontSource=https%3A%2F%2Ffonts.googleapis.com%2Fcss%3Ffamily%3DArchitects%2BDaughter;fontSize=16;entryX=1;entryY=0.5;entryDx=0;entryDy=0;entryPerimeter=0;shadow=0;strokeColor=default;strokeWidth=2;startArrow=classic;startFill=1;" parent="1" source="nDJdGogcVKiFzzGw0XgF-5" target="nDJdGogcVKiFzzGw0XgF-2" edge="1">
          <mxGeometry relative="1" as="geometry">
            <mxPoint x="250" y="422" as="targetPoint" />
          </mxGeometry>
        </mxCell>
        <mxCell id="nDJdGogcVKiFzzGw0XgF-10" value="MyError" style="swimlane;fontStyle=1;align=center;verticalAlign=top;childLayout=stackLayout;horizontal=1;startSize=26;horizontalStack=0;resizeParent=1;resizeParentMax=0;resizeLast=0;collapsible=1;marginBottom=0;whiteSpace=wrap;html=1;sketch=1;hachureGap=4;jiggle=2;curveFitting=1;fontFamily=Architects Daughter;fontSource=https%3A%2F%2Ffonts.googleapis.com%2Fcss%3Ffamily%3DArchitects%2BDaughter;fontSize=20;" parent="1" vertex="1">
          <mxGeometry x="670" y="40" width="250" height="204" as="geometry" />
        </mxCell>
        <mxCell id="nDJdGogcVKiFzzGw0XgF-11" value="+ field: type" style="text;strokeColor=none;fillColor=none;align=left;verticalAlign=top;spacingLeft=4;spacingRight=4;overflow=hidden;rotatable=0;points=[[0,0.5],[1,0.5]];portConstraint=eastwest;whiteSpace=wrap;html=1;fontSize=20;fontFamily=Architects Daughter;" parent="nDJdGogcVKiFzzGw0XgF-10" vertex="1">
          <mxGeometry y="26" width="250" height="144" as="geometry" />
        </mxCell>
        <mxCell id="nDJdGogcVKiFzzGw0XgF-12" value="" style="line;strokeWidth=1;fillColor=none;align=left;verticalAlign=middle;spacingTop=-1;spacingLeft=3;spacingRight=3;rotatable=0;labelPosition=right;points=[];portConstraint=eastwest;strokeColor=inherit;sketch=1;hachureGap=4;jiggle=2;curveFitting=1;fontFamily=Architects Daughter;fontSource=https%3A%2F%2Ffonts.googleapis.com%2Fcss%3Ffamily%3DArchitects%2BDaughter;fontSize=20;" parent="nDJdGogcVKiFzzGw0XgF-10" vertex="1">
          <mxGeometry y="170" width="250" height="8" as="geometry" />
        </mxCell>
        <mxCell id="nDJdGogcVKiFzzGw0XgF-13" value="+ method(type): type" style="text;strokeColor=none;fillColor=none;align=left;verticalAlign=top;spacingLeft=4;spacingRight=4;overflow=hidden;rotatable=0;points=[[0,0.5],[1,0.5]];portConstraint=eastwest;whiteSpace=wrap;html=1;fontSize=20;fontFamily=Architects Daughter;" parent="nDJdGogcVKiFzzGw0XgF-10" vertex="1">
          <mxGeometry y="178" width="250" height="26" as="geometry" />
        </mxCell>
        <mxCell id="nDJdGogcVKiFzzGw0XgF-14" value="MyAlert" style="swimlane;fontStyle=1;align=center;verticalAlign=top;childLayout=stackLayout;horizontal=1;startSize=26;horizontalStack=0;resizeParent=1;resizeParentMax=0;resizeLast=0;collapsible=1;marginBottom=0;whiteSpace=wrap;html=1;sketch=1;hachureGap=4;jiggle=2;curveFitting=1;fontFamily=Architects Daughter;fontSource=https%3A%2F%2Ffonts.googleapis.com%2Fcss%3Ffamily%3DArchitects%2BDaughter;fontSize=20;" parent="1" vertex="1">
          <mxGeometry x="980" y="40" width="250" height="204" as="geometry" />
        </mxCell>
        <mxCell id="nDJdGogcVKiFzzGw0XgF-15" value="+ field: type" style="text;strokeColor=none;fillColor=none;align=left;verticalAlign=top;spacingLeft=4;spacingRight=4;overflow=hidden;rotatable=0;points=[[0,0.5],[1,0.5]];portConstraint=eastwest;whiteSpace=wrap;html=1;fontSize=20;fontFamily=Architects Daughter;" parent="nDJdGogcVKiFzzGw0XgF-14" vertex="1">
          <mxGeometry y="26" width="250" height="144" as="geometry" />
        </mxCell>
        <mxCell id="nDJdGogcVKiFzzGw0XgF-16" value="" style="line;strokeWidth=1;fillColor=none;align=left;verticalAlign=middle;spacingTop=-1;spacingLeft=3;spacingRight=3;rotatable=0;labelPosition=right;points=[];portConstraint=eastwest;strokeColor=inherit;sketch=1;hachureGap=4;jiggle=2;curveFitting=1;fontFamily=Architects Daughter;fontSource=https%3A%2F%2Ffonts.googleapis.com%2Fcss%3Ffamily%3DArchitects%2BDaughter;fontSize=20;" parent="nDJdGogcVKiFzzGw0XgF-14" vertex="1">
          <mxGeometry y="170" width="250" height="8" as="geometry" />
        </mxCell>
        <mxCell id="nDJdGogcVKiFzzGw0XgF-17" value="+ method(type): type" style="text;strokeColor=none;fillColor=none;align=left;verticalAlign=top;spacingLeft=4;spacingRight=4;overflow=hidden;rotatable=0;points=[[0,0.5],[1,0.5]];portConstraint=eastwest;whiteSpace=wrap;html=1;fontSize=20;fontFamily=Architects Daughter;" parent="nDJdGogcVKiFzzGw0XgF-14" vertex="1">
          <mxGeometry y="178" width="250" height="26" as="geometry" />
        </mxCell>
        <mxCell id="nDJdGogcVKiFzzGw0XgF-18" value="Localization" style="swimlane;fontStyle=1;align=center;verticalAlign=top;childLayout=stackLayout;horizontal=1;startSize=26;horizontalStack=0;resizeParent=1;resizeParentMax=0;resizeLast=0;collapsible=1;marginBottom=0;whiteSpace=wrap;html=1;sketch=1;hachureGap=4;jiggle=2;curveFitting=1;fontFamily=Architects Daughter;fontSource=https%3A%2F%2Ffonts.googleapis.com%2Fcss%3Ffamily%3DArchitects%2BDaughter;fontSize=20;" parent="1" vertex="1">
          <mxGeometry x="1300" y="40" width="250" height="204" as="geometry" />
        </mxCell>
        <mxCell id="nDJdGogcVKiFzzGw0XgF-19" value="+ field: type" style="text;strokeColor=none;fillColor=none;align=left;verticalAlign=top;spacingLeft=4;spacingRight=4;overflow=hidden;rotatable=0;points=[[0,0.5],[1,0.5]];portConstraint=eastwest;whiteSpace=wrap;html=1;fontSize=20;fontFamily=Architects Daughter;" parent="nDJdGogcVKiFzzGw0XgF-18" vertex="1">
          <mxGeometry y="26" width="250" height="144" as="geometry" />
        </mxCell>
        <mxCell id="nDJdGogcVKiFzzGw0XgF-20" value="" style="line;strokeWidth=1;fillColor=none;align=left;verticalAlign=middle;spacingTop=-1;spacingLeft=3;spacingRight=3;rotatable=0;labelPosition=right;points=[];portConstraint=eastwest;strokeColor=inherit;sketch=1;hachureGap=4;jiggle=2;curveFitting=1;fontFamily=Architects Daughter;fontSource=https%3A%2F%2Ffonts.googleapis.com%2Fcss%3Ffamily%3DArchitects%2BDaughter;fontSize=20;" parent="nDJdGogcVKiFzzGw0XgF-18" vertex="1">
          <mxGeometry y="170" width="250" height="8" as="geometry" />
        </mxCell>
        <mxCell id="nDJdGogcVKiFzzGw0XgF-21" value="+ method(type): type" style="text;strokeColor=none;fillColor=none;align=left;verticalAlign=top;spacingLeft=4;spacingRight=4;overflow=hidden;rotatable=0;points=[[0,0.5],[1,0.5]];portConstraint=eastwest;whiteSpace=wrap;html=1;fontSize=20;fontFamily=Architects Daughter;" parent="nDJdGogcVKiFzzGw0XgF-18" vertex="1">
          <mxGeometry y="178" width="250" height="26" as="geometry" />
        </mxCell>
        <mxCell id="nDJdGogcVKiFzzGw0XgF-23" value="Notifications" style="swimlane;fontStyle=1;align=center;verticalAlign=top;childLayout=stackLayout;horizontal=1;startSize=26;horizontalStack=0;resizeParent=1;resizeParentMax=0;resizeLast=0;collapsible=1;marginBottom=0;whiteSpace=wrap;html=1;sketch=1;hachureGap=4;jiggle=2;curveFitting=1;fontFamily=Architects Daughter;fontSource=https%3A%2F%2Ffonts.googleapis.com%2Fcss%3Ffamily%3DArchitects%2BDaughter;fontSize=20;" parent="1" vertex="1">
          <mxGeometry x="1610" y="40" width="250" height="204" as="geometry" />
        </mxCell>
        <mxCell id="nDJdGogcVKiFzzGw0XgF-24" value="+ field: type" style="text;strokeColor=none;fillColor=none;align=left;verticalAlign=top;spacingLeft=4;spacingRight=4;overflow=hidden;rotatable=0;points=[[0,0.5],[1,0.5]];portConstraint=eastwest;whiteSpace=wrap;html=1;fontSize=20;fontFamily=Architects Daughter;" parent="nDJdGogcVKiFzzGw0XgF-23" vertex="1">
          <mxGeometry y="26" width="250" height="144" as="geometry" />
        </mxCell>
        <mxCell id="nDJdGogcVKiFzzGw0XgF-25" value="" style="line;strokeWidth=1;fillColor=none;align=left;verticalAlign=middle;spacingTop=-1;spacingLeft=3;spacingRight=3;rotatable=0;labelPosition=right;points=[];portConstraint=eastwest;strokeColor=inherit;sketch=1;hachureGap=4;jiggle=2;curveFitting=1;fontFamily=Architects Daughter;fontSource=https%3A%2F%2Ffonts.googleapis.com%2Fcss%3Ffamily%3DArchitects%2BDaughter;fontSize=20;" parent="nDJdGogcVKiFzzGw0XgF-23" vertex="1">
          <mxGeometry y="170" width="250" height="8" as="geometry" />
        </mxCell>
        <mxCell id="nDJdGogcVKiFzzGw0XgF-26" value="+ method(type): type" style="text;strokeColor=none;fillColor=none;align=left;verticalAlign=top;spacingLeft=4;spacingRight=4;overflow=hidden;rotatable=0;points=[[0,0.5],[1,0.5]];portConstraint=eastwest;whiteSpace=wrap;html=1;fontSize=20;fontFamily=Architects Daughter;" parent="nDJdGogcVKiFzzGw0XgF-23" vertex="1">
          <mxGeometry y="178" width="250" height="26" as="geometry" />
        </mxCell>
      </root>
    </mxGraphModel>
  </diagram>
</mxfile>
